<svg width="346" height="80" viewBox="0 0 346 80" fill="none" xmlns="http://www.w3.org/2000/svg">
<g clip-path="url(#clip0_11470_2311)">
<path d="M49.5965 19.0766C49.5965 3.58142 49.5965 1.95353 47.0642 1.53148V0.747681C48.3303 0.747681 50.2597 0.807973 52.4302 0.807973C54.4802 0.807973 56.4095 0.747681 57.736 0.747681V1.53148C55.264 1.95353 55.264 3.58142 55.264 19.0766V42.1083C55.264 42.8318 55.4448 43.0126 56.1081 43.0126H66.9004C68.4077 43.0126 69.5533 42.8921 70.3371 42.3494C71.0606 41.9877 71.6032 41.2039 71.7841 40.1186H72.5076C72.4473 42.9524 72.387 44.7611 72.3267 47.8963C69.0106 47.836 63.9461 47.836 59.3036 47.836C53.5758 47.836 48.3906 47.836 47.0039 47.8963V47.0522C49.6568 46.6905 49.5965 45.0023 49.5965 28.4822V19.0766Z" fill="#343434"/>
<path d="M86.5557 19.0766C86.5557 3.58142 86.5557 1.71236 84.3249 1.53148V0.747681C86.5557 0.747681 90.7762 0.807973 95.6599 0.807973C100.544 0.807973 105.608 0.747681 108.804 0.747681C108.683 3.27996 108.562 5.81224 108.562 8.40482H107.839C107.538 5.93283 105.789 5.51078 101.629 5.51078H92.2232V21.428H100.483C104.764 21.428 106.09 21.3677 106.513 19.9207H107.176C107.115 21.2471 107.115 22.4529 107.115 23.7191C107.115 25.1058 107.115 26.4322 107.176 27.9396H106.513C106.151 26.2514 104.885 26.1308 100.664 26.1308H92.2232V41.5656C92.2232 42.8318 92.2835 42.9524 93.4291 43.0126H103.92C106.754 43.0126 108.382 42.7715 108.864 40.3598H109.587C109.467 42.5303 109.346 45.3038 109.346 47.8963C105.729 47.8963 100.845 47.836 96.3231 47.836C91.0777 47.836 86.4352 47.8963 84.2043 47.8963V47.1125C86.5557 46.9317 86.5557 45.0626 86.5557 28.4822V19.0766Z" fill="#343434"/>
<path d="M121.827 24.2617C121.827 8.94747 133.524 0.144775 147.994 0.144775C150.285 0.144775 152.335 0.26536 154.324 0.566822C155.771 0.747699 157.64 1.04916 159.268 1.41092C159.027 4.78729 158.967 6.53577 158.907 9.55039H158.183C157.821 7.98279 156.977 7.01811 155.771 6.41519C154.083 5.63138 151.249 5.08875 148.114 5.08875C136.056 5.08875 127.916 12.5047 127.916 24.2617C127.916 36.0188 136.116 43.5553 147.15 43.5553C149.802 43.5553 152.094 43.3141 153.902 42.8318C153.902 41.2642 153.963 39.2745 153.963 38.129C153.963 29.3866 153.842 26.8543 151.249 26.6131V25.8293C152.817 25.8896 154.626 25.9499 156.435 25.9499C158.424 25.9499 159.992 25.8896 161.62 25.8293V26.6131C159.51 26.8543 159.51 28.0602 159.51 37.5864V39.9378C159.51 42.5303 159.51 45.3641 159.57 46.8111C155.952 48.0169 152.033 48.5596 146.969 48.5596C132.499 48.5596 121.827 39.5157 121.827 24.322V24.2617Z" fill="#343434"/>
<path d="M182.782 34.4511C178.441 45.1229 177.778 46.9317 180.31 47.1125V47.8963C178.803 47.836 176.934 47.836 175.065 47.836C172.774 47.836 171.206 47.836 170.121 47.8963V47.1125C171.99 46.9317 172.834 45.1229 179.707 28.4219L191.284 0.0241699H192.188L203.402 28.4822C210.035 45.0626 210.818 46.9317 212.627 47.1125V47.8963C211.602 47.836 210.035 47.836 207.804 47.836C205.693 47.836 203.583 47.836 202.076 47.8963V47.1125C204.608 46.9317 203.824 45.1229 199.725 34.4511H182.782ZM197.976 29.8689V29.688C192.55 15.2179 191.947 13.5297 191.464 11.8415H191.404C190.862 13.4694 190.198 15.2179 184.591 29.688L184.531 29.8689H197.976Z" fill="#343434"/>
<path d="M219.561 24.2015C219.561 9.00777 231.077 0.205078 245.667 0.205078C247.778 0.205078 249.707 0.325663 251.154 0.50654C252.48 0.627125 254.53 0.928587 255.917 1.23005C255.736 4.24467 255.676 6.29461 255.555 9.30923H254.832C254.41 7.74163 253.566 6.83724 252.42 6.23432C250.973 5.5711 248.501 5.14905 245.667 5.14905C233.669 5.14905 225.65 12.4444 225.65 24.322C225.65 36.1996 234.031 43.5553 245.125 43.5553C247.717 43.5553 250.129 43.1333 251.697 42.4701C252.963 41.8671 253.927 41.1436 254.53 39.3348H255.194C255.194 42.1083 255.194 45.0023 255.254 46.992C254.289 47.2934 252.782 47.7155 251.395 47.9567C249.225 48.3787 247.114 48.5596 244.703 48.5596C230.715 48.5596 219.561 39.4554 219.561 24.2617V24.2015Z" fill="#343434"/>
<path d="M287.329 28.7836V30.8939C287.329 44.942 287.269 46.8714 290.043 47.1125V47.8963C288.596 47.836 286.666 47.836 284.616 47.836C282.205 47.836 280.094 47.836 279.009 47.8963V47.1125C281.662 46.8714 281.662 44.942 281.662 30.9542V29.2057L276.416 19.1972C267.976 3.40055 267.252 1.77265 265.323 1.53148V0.747681C266.046 0.747681 267.976 0.807973 270.206 0.807973C272.317 0.807973 274.487 0.747681 276.236 0.747681V1.53148C273.462 1.77265 274.427 3.58142 279.25 12.987C281.843 17.8707 283.41 20.9456 284.616 23.4176H284.737C285.882 20.9456 287.45 17.9913 290.043 13.0473C294.987 3.64172 295.891 1.71236 293.238 1.53148V0.747681C295.107 0.807973 296.976 0.807973 299.026 0.807973C301.076 0.807973 302.523 0.807973 303.488 0.747681V1.53148C301.8 1.77265 301.076 3.34025 292.454 19.2574L287.329 28.7836Z" fill="#343434"/>
<path d="M72.8513 78.4194C72.4202 78.7269 71.8715 78.947 71.2053 79.0796C70.5391 79.2122 69.8548 79.2786 69.1554 79.2786C68.3083 79.2786 67.5033 79.1459 66.7407 78.8836C65.981 78.6214 65.3087 78.1963 64.7299 77.6115C64.1511 77.0266 63.6899 76.2639 63.3462 75.3294C63.0025 74.3949 62.8307 73.2584 62.8307 71.9259C62.8307 70.5934 63.0236 69.3785 63.4065 68.441C63.7893 67.5065 64.2867 66.7528 64.9017 66.18C65.5137 65.6073 66.198 65.1973 66.9517 64.9471C67.7053 64.6968 68.459 64.5732 69.2126 64.5732C70.0206 64.5732 70.7049 64.6275 71.2626 64.736C71.8203 64.8446 72.2815 64.9712 72.6463 65.1189L72.1006 67.4612C71.7901 67.3135 71.4254 67.205 71.0003 67.1387C70.5752 67.0724 70.0597 67.0392 69.4538 67.0392C68.3354 67.0392 67.437 67.4371 66.7587 68.233C66.0774 69.0289 65.7398 70.2648 65.7398 71.938C65.7398 72.6675 65.8212 73.3307 65.981 73.9306C66.1438 74.5305 66.3879 75.043 66.7196 75.4681C67.0481 75.8931 67.4611 76.2248 67.9525 76.4599C68.4439 76.695 69.0137 76.8126 69.6588 76.8126C70.2647 76.8126 70.7772 76.7523 71.1932 76.6317C71.6093 76.5111 71.974 76.3544 72.2845 76.1675L72.8513 78.4164V78.4194Z" fill="#343434"/>
<path d="M75.5796 71.9288C75.5796 69.5714 76.0981 67.7566 77.1351 66.4844C78.1722 65.2123 79.6523 64.5762 81.5787 64.5762C82.5886 64.5762 83.4689 64.751 84.2255 65.1007C84.9792 65.4504 85.6062 65.9478 86.1036 66.596C86.601 67.2411 86.9718 68.0158 87.216 68.9202C87.4572 69.8216 87.5808 70.8255 87.5808 71.9288C87.5808 74.2863 87.0593 76.1011 86.0162 77.3732C84.9731 78.6454 83.496 79.2815 81.5817 79.2815C80.5567 79.2815 79.6704 79.1066 78.9168 78.7569C78.1631 78.4072 77.5391 77.9098 77.0477 77.2617C76.5563 76.6166 76.1885 75.8418 75.9474 74.9404C75.7062 74.0391 75.5826 73.0352 75.5826 71.9318L75.5796 71.9288ZM78.4857 71.9288C78.4857 72.6433 78.546 73.3005 78.6666 73.8974C78.7871 74.4973 78.9741 75.0128 79.2213 75.4439C79.4715 75.875 79.791 76.2126 80.1799 76.4538C80.5718 76.6949 81.036 76.8185 81.5727 76.8185C82.5554 76.8185 83.3151 76.4357 83.8547 75.667C84.3943 74.8982 84.6626 73.6532 84.6626 71.9288C84.6626 71.2415 84.6054 70.6024 84.4908 70.0115C84.3762 69.4207 84.1984 68.8991 83.9542 68.456C83.713 68.0128 83.3965 67.6662 83.0046 67.4159C82.6127 67.1657 82.1364 67.0421 81.5696 67.0421C80.5869 67.0421 79.8272 67.437 79.2876 68.2239C78.748 69.0107 78.4796 70.2467 78.4796 71.9288H78.4857Z" fill="#343434"/>
<path d="M100.625 78.9982H91.6777V64.8596H94.4452V76.5352H100.625V78.9982Z" fill="#343434"/>
<path d="M113.127 78.9982H104.179V64.8596H106.947V76.5352H113.127V78.9982Z" fill="#343434"/>
<path d="M116.681 64.8597H125.062V67.3227H119.448V70.6146H124.558V73.0776H119.448V76.5323H125.164V78.9953H116.681V64.8567V64.8597Z" fill="#343434"/>
<path d="M138.92 78.4194C138.489 78.7269 137.94 78.947 137.274 79.0796C136.608 79.2122 135.923 79.2786 135.224 79.2786C134.377 79.2786 133.572 79.1459 132.809 78.8836C132.049 78.6214 131.377 78.1963 130.798 77.6115C130.22 77.0266 129.758 76.2639 129.415 75.3294C129.071 74.3949 128.899 73.2584 128.899 71.9259C128.899 70.5934 129.092 69.3785 129.475 68.441C129.858 67.5065 130.358 66.7528 130.97 66.18C131.582 65.6073 132.267 65.1973 133.02 64.9471C133.774 64.6968 134.527 64.5732 135.281 64.5732C136.089 64.5732 136.773 64.6275 137.331 64.736C137.889 64.8446 138.35 64.9712 138.715 65.1189L138.169 67.4612C137.859 67.3135 137.494 67.205 137.069 67.1387C136.644 67.0724 136.128 67.0392 135.525 67.0392C134.407 67.0392 133.509 67.4371 132.827 68.233C132.146 69.0289 131.808 70.2648 131.808 71.938C131.808 72.6675 131.89 73.3307 132.049 73.9306C132.212 74.5305 132.456 75.043 132.788 75.4681C133.117 75.8931 133.53 76.2248 134.021 76.4599C134.512 76.695 135.082 76.8126 135.727 76.8126C136.333 76.8126 136.846 76.7523 137.262 76.6317C137.678 76.5111 138.043 76.3544 138.353 76.1675L138.92 78.4164V78.4194Z" fill="#343434"/>
<path d="M151.907 67.3255H147.786V79.0011H145.018V67.3255H140.879V64.8625H151.907V67.3255Z" fill="#343434"/>
<path d="M171.194 67.3255H167.073V79.0011H164.306V67.3255H160.167V64.8625H171.194V67.3255Z" fill="#343434"/>
<path d="M182.686 73.0805H177.516V78.9982H174.749V64.8596H177.516V70.6145H182.686V64.8596H185.453V78.9982H182.686V73.0805Z" fill="#343434"/>
<path d="M190.018 64.8597H198.401V67.3227H192.785V70.6146H197.895V73.0776H192.785V76.5323H198.501V78.9953H190.018V64.8567V64.8597Z" fill="#343434"/>
<path d="M213.085 72.7578L213.348 75.263H213.429L213.713 72.7186L216.175 64.8625H217.993L220.417 72.7609L220.7 75.266H220.782L221.089 72.7217L222.841 64.8656H225.608L221.71 79.1036H219.853L217.327 71.2475L216.983 69.086H216.884L216.54 71.2686L214.035 79.1066H212.076L208.199 64.8686H211.207L213.085 72.7669V72.7578Z" fill="#343434"/>
<path d="M227.93 71.9288C227.93 69.5714 228.448 67.7566 229.485 66.4844C230.522 65.2123 232.002 64.5762 233.929 64.5762C234.939 64.5762 235.819 64.751 236.575 65.1007C237.329 65.4504 237.956 65.9478 238.454 66.596C238.951 67.2411 239.322 68.0158 239.563 68.9202C239.804 69.8216 239.928 70.8255 239.928 71.9288C239.928 74.2863 239.406 76.1011 238.363 77.3732C237.32 78.6454 235.843 79.2815 233.929 79.2815C232.904 79.2815 232.017 79.1066 231.264 78.7569C230.51 78.4072 229.886 77.9098 229.395 77.2617C228.903 76.6166 228.535 75.8418 228.294 74.9404C228.053 74.0391 227.93 73.0352 227.93 71.9318V71.9288ZM230.839 71.9288C230.839 72.6433 230.899 73.3005 231.02 73.8974C231.14 74.4973 231.327 75.0128 231.574 75.4439C231.824 75.875 232.144 76.2126 232.533 76.4538C232.922 76.6949 233.389 76.8185 233.926 76.8185C234.908 76.8185 235.668 76.4357 236.208 75.667C236.747 74.8982 237.016 73.6532 237.016 71.9288C237.016 71.2415 236.958 70.6024 236.844 70.0115C236.729 69.4207 236.551 68.8991 236.307 68.456C236.066 68.0128 235.749 67.6662 235.358 67.4159C234.966 67.1657 234.489 67.0421 233.923 67.0421C232.94 67.0421 232.177 67.437 231.641 68.2239C231.101 69.0107 230.833 70.2467 230.833 71.9288H230.839Z" fill="#343434"/>
<path d="M244.028 65.0014C244.338 64.9471 244.67 64.8959 245.028 64.8507C245.384 64.8024 245.743 64.7662 246.099 64.7391C246.454 64.712 246.801 64.6909 247.139 64.6788C247.476 64.6668 247.784 64.6577 248.067 64.6577C248.727 64.6577 249.376 64.718 250.018 64.8386C250.657 64.9592 251.23 65.1672 251.733 65.4656C252.239 65.7611 252.643 66.168 252.945 66.6866C253.246 67.2051 253.4 67.8562 253.4 68.637C253.4 69.7946 253.132 70.7382 252.592 71.4647C252.053 72.1913 251.332 72.6977 250.431 72.9811L251.419 73.6081L254.651 79.0013H251.459L248.248 73.4664L246.795 73.2042V79.0013H244.028V65.0044V65.0014ZM248.269 67.1237C247.986 67.1237 247.705 67.1297 247.431 67.1448C247.154 67.1568 246.943 67.184 246.795 67.2262V71.3261H247.968C248.736 71.3261 249.348 71.1512 249.807 70.8015C250.265 70.4518 250.494 69.873 250.494 69.0651C250.494 68.4592 250.304 67.9859 249.927 67.6422C249.55 67.2985 248.999 67.1267 248.272 67.1267L248.269 67.1237Z" fill="#343434"/>
<path d="M267.255 78.9982H258.308V64.8596H261.075V76.5352H267.255V78.9982Z" fill="#343434"/>
<path d="M270.809 64.8596C271.093 64.8204 271.412 64.7842 271.768 64.7601C272.124 64.733 272.492 64.7119 272.868 64.6998C273.245 64.6878 273.613 64.6757 273.969 64.6697C274.324 64.6637 274.644 64.6606 274.927 64.6606C276.178 64.6606 277.249 64.8355 278.138 65.1852C279.027 65.5349 279.748 66.0263 280.299 66.6593C280.851 67.2924 281.255 68.0461 281.511 68.9203C281.768 69.7945 281.894 70.7592 281.894 71.8083C281.894 72.7639 281.774 73.6864 281.529 74.5757C281.288 75.465 280.884 76.2519 280.318 76.9392C279.751 77.6265 279.009 78.1782 278.087 78.5942C277.164 79.0102 276.022 79.2213 274.662 79.2213C274.445 79.2213 274.159 79.2152 273.803 79.2002C273.447 79.1881 273.076 79.17 272.691 79.1489C272.308 79.1278 271.94 79.1097 271.59 79.0886C271.241 79.0675 270.978 79.0434 270.803 79.0193V64.8596H270.809ZM275.154 67.1236C274.858 67.1236 274.557 67.1296 274.255 67.1447C273.954 67.1567 273.728 67.1778 273.58 67.205V76.6769C273.634 76.689 273.725 76.701 273.851 76.7071C273.978 76.7131 274.116 76.7191 274.264 76.7282C274.412 76.7342 274.554 76.7402 274.689 76.7493C274.825 76.7553 274.924 76.7583 274.991 76.7583C275.772 76.7583 276.423 76.6196 276.941 76.3453C277.46 76.068 277.87 75.7032 278.174 75.245C278.476 74.7868 278.69 74.2592 278.81 73.6593C278.931 73.0594 278.991 72.4444 278.991 71.8113C278.991 71.2596 278.937 70.705 278.828 70.1442C278.72 69.5865 278.521 69.0831 278.231 68.6399C277.942 68.1968 277.547 67.832 277.05 67.5487C276.552 67.2653 275.919 67.1236 275.15 67.1236H275.154Z" fill="#343434"/>
<path d="M303.174 73.1407C306.716 71.9801 310.21 70.6717 313.153 69.3966C317.081 67.6963 321.033 65.9508 324.635 63.6205C328.663 61.0159 331.813 57.522 333.978 53.2382C336.757 47.7335 338.825 41.442 338.967 35.2439C339.103 29.5584 337.854 23.918 335.518 18.7419C333.679 14.6782 331.268 10.6265 328.319 7.14164C327.864 7.16877 327.439 7.12656 327.041 7.02708C326.51 6.89142 326.04 6.64121 325.591 6.33673C325.368 6.18299 325.157 6.00512 324.958 5.8152C324.75 5.63131 324.551 5.42933 324.367 5.21831C323.996 4.78722 323.638 4.33804 323.321 3.86173C322.682 2.92117 322.139 1.95347 321.741 1.22092C321.542 0.850123 321.386 0.548661 321.277 0.331608C321.223 0.226097 321.187 0.141687 321.157 0.087424C321.126 0.0301462 321.114 0 321.114 0C321.114 0 321.147 0 321.202 0.00301462C321.262 0.00602924 321.359 0.0180877 321.479 0.0331608C321.72 0.0663216 322.064 0.123599 322.483 0.226097C323.318 0.425061 324.43 0.79586 325.507 1.38371C326.574 1.97458 327.617 2.76742 328.259 3.75019C328.594 4.22951 328.811 4.76913 328.913 5.32985C329.004 5.80314 328.985 6.30357 328.85 6.81907C330.384 8.67608 331.771 10.6748 333.01 12.6765C337.24 19.5227 339.965 27.4873 339.603 35.6057C339.341 41.4691 337.55 47.3054 335.015 52.584C332.277 58.2847 328.114 62.5715 322.57 65.5951C317.464 68.3746 311.555 71.2897 305.417 73.8672L303.331 74.7264C299.671 76.2036 295.957 77.539 292.301 78.6424C291.903 78.763 289.78 76.6045 290.193 76.5382C293.344 76.0106 297.263 74.9977 301.236 73.7617L303.174 73.1437V73.1407Z" fill="#343434"/>
<path d="M321.714 72.601C323.101 72.3629 324.376 71.9167 325.299 71.5218C326.215 71.1269 326.788 70.7983 326.788 70.7983C326.788 70.7983 326.203 70.5631 325.305 70.2647C324.403 69.9572 323.203 69.5774 321.934 69.2669C320.665 68.9624 319.348 68.7333 318.133 68.7906C317.524 68.8147 316.945 68.9202 316.387 69.1191C315.824 69.3181 315.302 69.6256 314.729 70.0597C315.097 71.3289 316.209 72.1277 317.515 72.4985C318.826 72.8784 320.333 72.8482 321.717 72.604L321.714 72.601Z" fill="#343434"/>
<path d="M314.898 68.052C315.459 67.9465 315.974 67.6812 316.448 67.3345C317.385 66.6261 318.103 65.5469 318.597 64.4405C319.094 63.3341 319.36 62.1946 319.507 61.3475C319.577 60.9224 319.619 60.5667 319.643 60.3195C319.664 60.0723 319.673 59.9276 319.673 59.9276C319.673 59.9276 319.236 60.1628 318.591 60.5637C317.946 60.9707 317.096 61.5344 316.258 62.2127C315.429 62.891 314.618 63.6808 314.048 64.5942C313.481 65.5107 313.123 66.5598 313.156 67.8832C313.734 68.1304 314.334 68.1605 314.898 68.046V68.052Z" fill="#343434"/>
<path d="M331.05 63.2135C329.739 63.2587 328.401 63.3492 327.258 63.6989C326.115 64.0546 325.157 64.6635 324.533 65.785C325.317 66.8461 326.441 67.3375 327.707 67.3948C328.976 67.4581 330.378 67.0873 331.665 66.5055C332.953 65.9237 334.116 65.1308 334.939 64.4495C335.352 64.1149 335.681 63.8074 335.907 63.5934C336.133 63.3733 336.254 63.2406 336.254 63.2406C336.254 63.2406 335.627 63.2286 334.629 63.2105C333.652 63.2045 332.356 63.1773 331.047 63.2135H331.05Z" fill="#343434"/>
<path d="M322.32 63.8406C323.565 63.9069 324.575 63.307 325.296 62.3906C326.01 61.4741 326.444 60.2592 326.613 59.0715C326.788 57.8807 326.731 56.7412 326.592 55.9122C326.529 55.4992 326.456 55.1645 326.393 54.9264C326.333 54.6912 326.287 54.5586 326.287 54.5586C326.287 54.5586 326.212 54.637 326.079 54.7817C325.941 54.9234 325.748 55.1314 325.525 55.3936C325.06 55.9152 324.433 56.6417 323.809 57.4918C323.194 58.345 322.585 59.3217 322.239 60.3859C321.898 61.456 321.811 62.6197 322.32 63.8346V63.8406Z" fill="#343434"/>
<path d="M339.519 57.3381C339.651 57.1814 339.778 57.0216 339.901 56.8588L340.082 56.6146L340.227 56.4157C340.414 56.1594 340.589 55.9032 340.751 55.653C341.08 55.1525 341.363 54.6732 341.599 54.2602C341.828 53.8442 342.006 53.4975 342.126 53.2503C342.244 53.0001 342.298 52.8494 342.298 52.8494C342.298 52.8494 341.716 53.0182 340.815 53.2985C339.923 53.5819 338.75 53.9979 337.61 54.5345C337.321 54.6702 337.041 54.8119 336.76 54.9656C336.462 55.1344 336.163 55.3063 335.883 55.4811C335.597 55.656 335.316 55.8218 335.054 56.0057C334.792 56.1835 334.526 56.3554 334.291 56.5483C333.333 57.2989 332.618 58.1611 332.323 59.4303C333.378 60.2231 334.617 60.3588 335.895 59.9458C337.164 59.5448 338.469 58.5892 339.516 57.3351L339.519 57.3381Z" fill="#343434"/>
<path d="M331.87 52.0414C331.536 50.8627 331.053 49.8015 330.658 49.0418C330.46 48.659 330.282 48.3575 330.14 48.1404C330.001 47.9264 329.917 47.8088 329.917 47.8088C329.917 47.8088 329.869 47.9294 329.793 48.1344C329.706 48.3424 329.576 48.6409 329.441 49.0087C329.305 49.3764 329.154 49.8105 329.022 50.2929C328.889 50.7632 328.744 51.3661 328.705 51.7218C328.593 52.5599 328.458 53.5637 328.515 54.6219C328.584 55.677 328.847 56.7984 329.682 57.8204C330.885 57.54 331.671 56.6447 332.012 55.5474C332.09 55.27 332.16 54.9897 332.19 54.6972C332.214 54.4018 332.226 54.1094 332.208 53.817C332.184 53.5215 332.142 53.2291 332.084 52.9458C332.024 52.6413 331.949 52.3398 331.87 52.0444V52.0414Z" fill="#343434"/>
<path d="M345.189 42.8378C345.258 42.5635 345.282 42.4037 345.282 42.4037C345.282 42.4037 344.749 42.6871 343.905 43.1393C343.079 43.5945 341.997 44.2275 340.972 44.9661C339.907 45.6896 338.861 46.5096 338.183 47.4532C338.017 47.6913 337.845 47.9265 337.707 48.1737C337.568 48.4239 337.45 48.6771 337.372 48.9454C337.203 49.479 337.158 50.0578 337.267 50.6909C338.527 51.0587 339.693 50.7753 340.739 50.103C341.002 49.9372 341.255 49.7443 341.502 49.5363C341.743 49.3253 341.987 49.1022 342.195 48.8489C342.621 48.3515 343.012 47.7938 343.362 47.2271C344.089 46.0996 344.529 44.8696 344.842 43.9532C344.996 43.492 345.114 43.1061 345.186 42.8348L345.189 42.8378Z" fill="#343434"/>
<path d="M334.249 49.6508C334.749 49.2981 335.114 48.8549 335.361 48.3575C335.485 48.1133 335.575 47.8511 335.648 47.5797C335.714 47.3084 335.765 47.0341 335.762 46.7417C335.768 45.581 335.437 44.3631 334.921 43.2779C334.373 42.1866 333.703 41.249 333.17 40.5918C332.898 40.2633 332.672 40.004 332.488 39.8231C332.314 39.6453 332.208 39.5458 332.208 39.5458C332.208 39.5458 332.184 39.6664 332.148 39.8774C332.1 40.0884 332.033 40.3929 331.97 40.7667C331.831 41.5083 331.765 42.5242 331.696 43.6065C331.674 44.1491 331.696 44.7159 331.771 45.2796C331.792 45.4243 331.813 45.566 331.831 45.7046C331.849 45.8433 331.873 45.982 331.895 46.1207C331.946 46.398 332.012 46.6723 332.103 46.9376C332.452 48.0048 333.103 48.9906 334.252 49.6508H334.249Z" fill="#343434"/>
<path d="M342.376 34.8641C342.159 35.0992 341.951 35.3434 341.752 35.5906C341.553 35.8348 341.354 36.085 341.152 36.3352C340.767 36.8417 340.432 37.3572 340.188 37.8877C340.064 38.15 339.971 38.4213 339.892 38.6896C339.799 38.9579 339.739 39.2323 339.708 39.5096C339.648 40.0643 339.708 40.6371 339.935 41.234C341.243 41.3576 342.337 40.8571 343.239 39.9829C343.462 39.7659 343.676 39.5247 343.878 39.2654C344.074 39.0062 344.236 38.7228 344.402 38.4304C344.725 37.8455 344.999 37.2125 345.228 36.5734C345.352 36.2568 345.433 35.9313 345.509 35.6087C345.584 35.2922 345.65 34.9756 345.708 34.6681C345.822 34.0562 345.922 33.4834 345.958 32.992C346.015 32.0062 345.997 31.3521 345.997 31.3521C345.997 31.3521 345.515 31.759 344.839 32.4011C344.182 33.0493 343.233 33.9115 342.376 34.8581V34.8641Z" fill="#343434"/>
<path d="M337.649 39.0725C337.722 38.8072 337.767 38.5358 337.782 38.2615C337.788 37.9842 337.749 37.7008 337.698 37.4204C337.592 36.8597 337.39 36.299 337.131 35.7654C337.065 35.6328 336.995 35.5001 336.926 35.3705C336.848 35.2409 336.763 35.1143 336.676 34.9876C336.504 34.7344 336.317 34.4902 336.13 34.2611C335.756 33.7969 335.355 33.3778 334.969 33.0131C334.783 32.8322 334.581 32.6634 334.385 32.5066C334.192 32.3559 334.005 32.2112 333.833 32.0876C333.14 31.5902 332.654 31.3188 332.654 31.3188C332.654 31.3188 332.648 31.7952 332.724 32.5126C332.754 32.6935 332.763 32.8895 332.772 33.1005C332.79 33.3115 332.808 33.5316 332.838 33.7637C332.889 34.2249 332.995 34.7254 333.094 35.2409C333.182 35.7564 333.311 36.2869 333.495 36.8115C333.586 37.0707 333.691 37.33 333.812 37.5832C333.917 37.8365 334.035 38.0837 334.174 38.3218C334.719 39.2744 335.554 40.1065 336.805 40.5345C337.233 40.0974 337.505 39.6 337.649 39.0725Z" fill="#343434"/>
<path d="M339.992 28.1776C339.859 28.7504 339.823 29.3081 339.907 29.8598C339.947 30.1341 340.034 30.4024 340.13 30.6737C340.224 30.942 340.354 31.2103 340.522 31.4756C341.825 31.2917 342.829 30.5471 343.447 29.4769C343.769 28.9434 344.016 28.3314 344.215 27.6802C344.387 27.0321 344.475 26.3508 344.532 25.6695C344.556 25.3288 344.58 24.9882 344.583 24.6566C344.571 24.328 344.553 24.0054 344.532 23.6979C344.484 23.0739 344.417 22.4981 344.345 22.0097C344.146 21.045 343.962 20.421 343.962 20.421C343.962 20.421 343.606 20.9335 343.112 21.7294C342.871 22.1213 342.584 22.5855 342.271 23.101C341.963 23.6105 341.65 24.1622 341.357 24.7259C341.08 25.2866 340.773 25.8715 340.531 26.4503C340.281 27.0321 340.106 27.6109 339.995 28.1807L339.992 28.1776Z" fill="#343434"/>
<path d="M337.499 28.0119C337.264 27.4994 336.911 27.014 336.522 26.5709C336.326 26.3508 336.115 26.1368 335.901 25.9378C335.684 25.7358 335.431 25.555 335.196 25.3771C334.219 24.6837 333.239 24.1893 332.419 23.8939C331.626 23.5955 331.087 23.4658 331.087 23.4658C331.087 23.4658 331.201 23.918 331.46 24.5812C331.572 24.9189 331.702 25.3168 331.879 25.7388C331.964 25.9499 332.06 26.1669 332.169 26.39C332.274 26.6131 332.362 26.8482 332.479 27.0743C332.693 27.5386 332.965 27.9998 333.275 28.449C333.553 28.8982 333.887 29.3323 334.279 29.7181C335.087 30.4808 336.034 31.0868 337.354 31.2104C337.514 30.9511 337.64 30.6858 337.725 30.4206C337.812 30.1492 337.83 29.8779 337.839 29.6066C337.839 29.064 337.713 28.5244 337.496 28.0089L337.499 28.0119Z" fill="#343434"/>
<path d="M339.292 10.4697C339.292 10.4697 339.078 11.0395 338.771 11.9318C338.463 12.8272 338.12 13.9938 337.797 15.2419C337.64 15.8629 337.535 16.4839 337.438 17.1049C337.345 17.7289 337.3 18.3379 337.345 18.9076C337.375 19.194 337.396 19.4774 337.45 19.7517C337.508 20.0291 337.586 20.2914 337.695 20.5416C337.806 20.7918 337.945 21.033 338.114 21.2621C338.273 21.4942 338.469 21.7173 338.699 21.9283C339.31 21.6721 339.799 21.3043 340.188 20.8461C340.586 20.3908 340.83 19.8573 341.014 19.2604C341.107 18.9619 341.171 18.6514 341.222 18.3288C341.264 18.0063 341.3 17.6717 341.294 17.3461C341.291 16.6829 341.222 15.9985 341.116 15.3323C340.854 14.0209 340.432 12.7729 340.016 11.9017C339.82 11.4585 339.642 11.0968 339.512 10.8466C339.377 10.6024 339.292 10.4697 339.292 10.4697Z" fill="#343434"/>
<path d="M335.382 19.7367C335.259 19.4925 335.114 19.2574 334.927 19.0494C334.562 18.6213 334.119 18.2354 333.634 17.9068C333.146 17.5782 332.585 17.319 332.045 17.0989C331.771 16.9904 331.497 16.8909 331.228 16.8065C330.96 16.7221 330.68 16.6527 330.417 16.5955C329.893 16.4749 329.404 16.3965 328.988 16.3452C328.572 16.294 328.229 16.2669 327.979 16.2608C327.725 16.2488 327.59 16.2488 327.59 16.2488C327.59 16.2488 327.647 16.3513 327.761 16.5261C327.867 16.704 328.012 16.9602 328.214 17.2617C328.313 17.4124 328.422 17.5722 328.545 17.741C328.609 17.8254 328.672 17.9128 328.741 18.0003C328.799 18.0907 328.865 18.1842 328.931 18.2776C329.193 18.6514 329.504 19.0403 329.854 19.4232C330.176 19.8181 330.544 20.204 330.954 20.5567C331.056 20.6471 331.168 20.7315 331.267 20.8159C331.37 20.9034 331.472 20.9847 331.581 21.0692C331.795 21.2289 332.021 21.3797 332.259 21.5123C332.727 21.7836 333.263 21.9946 333.812 22.1152C334.361 22.2358 334.96 22.266 335.612 22.1574C335.702 21.868 335.756 21.5816 335.768 21.3013C335.768 21.027 335.735 20.7587 335.669 20.4964C335.602 20.2341 335.506 19.9839 335.382 19.7427V19.7367Z" fill="#343434"/>
<path d="M334.56 13.2191C335.609 12.4292 336.094 11.3259 336.172 10.0869C336.205 9.47491 336.133 8.8328 336 8.18465C335.862 7.54254 335.636 6.9155 335.379 6.30051C335.123 5.69156 334.807 5.12783 334.502 4.6063C334.198 4.08477 333.866 3.6386 333.589 3.25273C333.311 2.86686 333.055 2.56841 332.871 2.35739C332.693 2.1524 332.585 2.03784 332.585 2.03784C332.585 2.03784 332.482 2.64981 332.389 3.56022C332.335 4.02448 332.28 4.56711 332.235 5.14591C332.214 5.43833 332.196 5.73377 332.184 6.04126C332.166 6.34875 332.151 6.66528 332.145 6.98483C332.13 8.24193 332.187 9.54123 332.522 10.6355C332.681 11.1902 332.914 11.6907 333.251 12.1248C333.574 12.5679 333.993 12.9417 334.556 13.2251L334.56 13.2191Z" fill="#343434"/>
<path d="M330.246 11.0275C329.344 10.3552 328.162 9.95731 326.99 9.78547C326.411 9.69202 325.829 9.65886 325.287 9.65283C324.747 9.65283 324.256 9.67092 323.833 9.71312C322.983 9.80055 322.438 9.9151 322.438 9.9151C322.438 9.9151 322.513 10.0055 322.661 10.1593C322.805 10.313 323.032 10.518 323.282 10.7803C323.541 11.0396 323.87 11.3229 324.219 11.6274C324.563 11.9379 324.964 12.2514 325.386 12.5589C325.802 12.8724 326.263 13.1649 326.743 13.4181C327.213 13.6834 327.713 13.9034 328.247 14.0512C329.293 14.3587 330.435 14.4069 331.653 13.8733C331.684 13.2734 331.56 12.7247 331.319 12.2454C331.06 11.7781 330.689 11.3712 330.252 11.0275H330.246Z" fill="#343434"/>
<path d="M42.8256 73.1408C39.2834 71.9801 35.7895 70.6718 32.8472 69.3966C28.9191 67.6964 24.967 65.9509 21.3645 63.6206C17.337 61.0159 14.1867 57.522 12.0222 53.2382C9.24272 47.7335 7.17469 41.442 7.033 35.244C6.89734 29.5584 8.14539 23.918 10.4817 18.7419C12.3206 14.6782 14.7323 10.6266 17.6806 7.14167C18.1358 7.1688 18.5609 7.1266 18.9588 7.02712C19.4894 6.89146 19.9597 6.64125 20.4089 6.33677C20.6319 6.18302 20.843 6.00516 21.0419 5.81524C21.2499 5.63135 21.4489 5.42937 21.6328 5.21834C22.0036 4.78725 22.3623 4.33808 22.6789 3.86177C23.318 2.9212 23.8606 1.95351 24.2585 1.22096C24.4575 0.85016 24.6143 0.548698 24.7228 0.331645C24.7771 0.226134 24.8132 0.141724 24.8434 0.0874611C24.8675 0.033198 24.8796 0.00305176 24.8796 0.00305176C24.8796 0.00305176 24.8464 0.00305176 24.7921 0.00606638C24.7318 0.009081 24.6354 0.0211395 24.5148 0.0362126C24.2736 0.0693734 23.9299 0.126651 23.5109 0.229148C22.6759 0.428113 21.5635 0.798911 20.4872 1.38676C19.4201 1.97763 18.377 2.77047 17.7349 3.75324C17.4003 4.23256 17.1832 4.77218 17.0807 5.3329C16.9903 5.8062 17.0084 6.30662 17.144 6.82212C15.6096 8.67913 14.2229 10.6778 12.9839 12.6795C8.75435 19.5257 6.02913 27.4904 6.39089 35.6087C6.65316 41.4722 8.44384 47.3085 10.9791 52.5871C13.7164 58.2877 17.8796 62.5745 23.4235 65.5982C28.5303 68.3777 34.4389 71.2928 40.5767 73.8703L42.6628 74.7295C46.3225 76.2066 50.0366 77.5421 53.6933 78.6454C54.0912 78.766 56.2135 76.6076 55.8005 76.5412C52.6502 76.0137 48.7312 75.0008 44.758 73.7648L42.8196 73.1468L42.8256 73.1408Z" fill="#343434"/>
<path d="M24.2856 72.601C22.8989 72.3629 21.6237 71.9167 20.7013 71.5218C19.7848 71.1269 19.212 70.7983 19.212 70.7983C19.212 70.7983 19.7969 70.5631 20.6952 70.2647C21.5966 69.9572 22.7964 69.5774 24.0656 69.2669C25.3347 68.9624 26.6521 68.7333 27.867 68.7906C28.476 68.8147 29.0548 68.9202 29.6125 69.1191C30.1762 69.3181 30.6977 69.6256 31.2705 70.0597C30.9027 71.3289 29.7903 72.1277 28.485 72.4985C27.1736 72.8784 25.6663 72.8482 24.2826 72.604L24.2856 72.601Z" fill="#343434"/>
<path d="M31.1017 68.052C30.541 67.9465 30.0255 67.6812 29.5522 67.3345C28.6146 66.6261 27.8972 65.5469 27.4028 64.4405C26.9053 63.3341 26.6401 62.1946 26.4923 61.3475C26.423 60.9224 26.3808 60.5667 26.3567 60.3195C26.3356 60.0723 26.3265 59.9276 26.3265 59.9276C26.3265 59.9276 26.7637 60.1628 27.4088 60.5637C28.0539 60.9707 28.904 61.5344 29.7421 62.2127C30.5711 62.891 31.3821 63.6808 31.9518 64.5942C32.5186 65.5107 32.8773 66.5598 32.8441 67.8832C32.2653 68.1304 31.6654 68.1605 31.1017 68.046V68.052Z" fill="#343434"/>
<path d="M14.9495 63.2135C16.2608 63.2587 17.5993 63.3492 18.7418 63.6989C19.8844 64.0546 20.843 64.6635 21.4671 65.785C20.6833 66.8461 19.5588 67.3375 18.2927 67.3948C17.0235 67.4581 15.6217 67.0873 14.3345 66.5055C13.0472 65.9237 11.8836 65.1308 11.0606 64.4495C10.6476 64.1149 10.319 63.8074 10.0929 63.5934C9.8668 63.3733 9.74622 63.2406 9.74622 63.2406C9.74622 63.2406 10.3733 63.2286 11.3711 63.2105C12.3478 63.2045 13.6441 63.1773 14.9525 63.2135H14.9495Z" fill="#343434"/>
<path d="M23.6767 63.8406C22.4316 63.9069 21.4217 63.307 20.7012 62.3906C19.9868 61.4741 19.5527 60.2592 19.3838 59.0715C19.209 57.8807 19.2663 56.7412 19.4049 55.9122C19.4683 55.4992 19.5406 55.1645 19.6039 54.9264C19.6642 54.6912 19.7094 54.5586 19.7094 54.5586C19.7094 54.5586 19.7848 54.637 19.9174 54.7817C20.0561 54.9234 20.249 55.1314 20.4721 55.3936C20.9364 55.9152 21.5634 56.6417 22.1874 57.4918C22.8024 58.345 23.4114 59.3217 23.7581 60.3859C24.0987 61.456 24.1861 62.6197 23.6767 63.8346V63.8406Z" fill="#343434"/>
<path d="M6.48126 57.3381C6.34862 57.1814 6.222 57.0216 6.09841 56.8588L5.91753 56.6146L5.77283 56.4157C5.58592 56.1594 5.41107 55.9032 5.24828 55.653C4.91969 55.1525 4.63631 54.6732 4.40117 54.2602C4.17206 53.8442 3.9942 53.4975 3.87362 53.2503C3.75605 53.0001 3.70178 52.8494 3.70178 52.8494C3.70178 52.8494 4.2836 53.0182 5.18498 53.2985C6.0773 53.5819 7.24999 53.9979 8.38952 54.5345C8.67892 54.6702 8.95928 54.8119 9.23964 54.9656C9.53809 55.1344 9.83653 55.3063 10.1169 55.4811C10.4033 55.656 10.6836 55.8218 10.9459 56.0057C11.2082 56.1835 11.4735 56.3554 11.7086 56.5483C12.6673 57.2989 13.3817 58.1611 13.6772 59.4303C12.622 60.2231 11.383 60.3588 10.1048 59.9458C8.83568 59.5448 7.53035 58.5892 6.48428 57.3351L6.48126 57.3381Z" fill="#343434"/>
<path d="M14.1264 52.0414C14.461 50.8627 14.9433 49.8015 15.3383 49.0418C15.5372 48.659 15.7151 48.3575 15.8568 48.1404C15.9954 47.9264 16.0798 47.8088 16.0798 47.8088C16.0798 47.8088 16.1281 47.9294 16.2034 48.1344C16.2909 48.3424 16.4205 48.6409 16.5562 49.0087C16.6918 49.3764 16.8425 49.8105 16.9752 50.2929C17.1078 50.7632 17.2525 51.3661 17.2917 51.7218C17.4033 52.5599 17.5389 53.5637 17.4816 54.6219C17.4123 55.677 17.15 56.7984 16.315 57.8204C15.1122 57.54 14.3253 56.6447 13.9847 55.5474C13.9063 55.27 13.837 54.9897 13.8068 54.6972C13.7827 54.4018 13.7707 54.1094 13.7887 53.817C13.8129 53.5215 13.8551 53.2291 13.9123 52.9458C13.9726 52.6413 14.048 52.3398 14.1264 52.0444V52.0414Z" fill="#343434"/>
<path d="M0.807809 42.8378C0.738472 42.5635 0.714355 42.4037 0.714355 42.4037C0.714355 42.4037 1.24794 42.6871 2.09204 43.1393C2.91804 43.5945 4.00029 44.2275 5.02526 44.9661C6.08942 45.6896 7.1355 46.5096 7.81379 47.4532C7.97959 47.6913 8.15142 47.9265 8.2901 48.1737C8.42877 48.4239 8.54634 48.6771 8.62472 48.9454C8.79354 49.479 8.83876 50.0578 8.73023 50.6909C7.47012 51.0587 6.30346 50.7753 5.25739 50.103C4.99512 49.9372 4.74189 49.7443 4.49469 49.5363C4.25352 49.3253 4.00934 49.1022 3.80133 48.8489C3.37626 48.3515 2.98436 47.7938 2.63467 47.2271C1.90814 46.0996 1.46801 44.8696 1.15449 43.9532C1.00074 43.492 0.883174 43.1061 0.810823 42.8348L0.807809 42.8378Z" fill="#343434"/>
<path d="M11.7478 49.6508C11.2474 49.2981 10.8826 48.8549 10.6354 48.3575C10.5118 48.1133 10.4214 47.8511 10.3491 47.5797C10.2827 47.3084 10.2315 47.0341 10.2345 46.7417C10.2285 45.581 10.5601 44.3631 11.0756 43.2779C11.6242 42.1866 12.2935 41.249 12.8271 40.5918C13.0984 40.2633 13.3245 40.004 13.5084 39.8231C13.6832 39.6453 13.7887 39.5458 13.7887 39.5458C13.7887 39.5458 13.8129 39.6664 13.849 39.8774C13.8973 40.0884 13.9636 40.3929 14.0269 40.7667C14.1656 41.5083 14.2319 42.5242 14.3012 43.6065C14.3223 44.1491 14.3012 44.7159 14.2259 45.2796C14.2048 45.4243 14.1837 45.566 14.1656 45.7046C14.1475 45.8433 14.1234 45.982 14.1023 46.1207C14.051 46.398 13.9847 46.6723 13.8942 46.9376C13.5446 48.0048 12.8934 48.9906 11.7448 49.6508H11.7478Z" fill="#343434"/>
<path d="M3.62339 34.8641C3.84044 35.0992 4.04845 35.3434 4.24742 35.5906C4.44638 35.8348 4.64535 36.085 4.84733 36.3352C5.2332 36.8417 5.56782 37.3572 5.81201 37.8877C5.9356 38.15 6.02906 38.4213 6.10744 38.6896C6.20089 38.9579 6.26118 39.2323 6.29133 39.5096C6.35162 40.0643 6.29133 40.6371 6.06523 41.234C4.75689 41.3576 3.66258 40.8571 2.76121 39.9829C2.53813 39.7659 2.32409 39.5247 2.12211 39.2654C1.92616 39.0062 1.76337 38.7228 1.59757 38.4304C1.275 37.8455 1.00067 37.2125 0.77156 36.5734C0.647961 36.2568 0.566566 35.9313 0.491201 35.6087C0.415835 35.2922 0.349514 34.9756 0.292236 34.6681C0.17768 34.0562 0.0781979 33.4834 0.0420225 32.992C-0.0152553 32.0062 0.0028324 31.3521 0.0028324 31.3521C0.0028324 31.3521 0.485172 31.759 1.16045 32.4011C1.81763 33.0493 2.76724 33.9115 3.62339 34.8581V34.8641Z" fill="#343434"/>
<path d="M8.3503 39.0725C8.27795 38.8072 8.23273 38.5358 8.21765 38.2615C8.21162 37.9842 8.25082 37.7008 8.30206 37.4204C8.40758 36.8597 8.60955 36.299 8.86881 35.7654C8.93513 35.6328 9.00447 35.5001 9.07381 35.3705C9.15219 35.2409 9.2366 35.1143 9.32402 34.9876C9.49585 34.7344 9.68276 34.4902 9.86967 34.2611C10.2435 33.7969 10.6444 33.3778 11.0303 33.0131C11.2172 32.8322 11.4192 32.6634 11.6151 32.5066C11.8081 32.3559 11.995 32.2112 12.1668 32.0876C12.8602 31.5902 13.3455 31.3188 13.3455 31.3188C13.3455 31.3188 13.3516 31.7952 13.2762 32.5126C13.246 32.6935 13.237 32.8895 13.228 33.1005C13.2099 33.3115 13.1918 33.5316 13.1616 33.7637C13.1104 34.2249 13.0049 34.7254 12.9054 35.2409C12.818 35.7564 12.6883 36.2869 12.5044 36.8115C12.414 37.0707 12.3085 37.33 12.1879 37.5832C12.0824 37.8365 11.9648 38.0837 11.8262 38.3218C11.2805 39.2744 10.4455 40.1065 9.19439 40.5345C8.76631 40.0974 8.495 39.6 8.3503 39.0725Z" fill="#343434"/>
<path d="M6.00801 28.1776C6.14066 28.7504 6.17683 29.3081 6.09242 29.8598C6.05323 30.1341 5.96581 30.4024 5.86934 30.6737C5.77589 30.942 5.64626 31.2103 5.47744 31.4756C4.17513 31.2917 3.17126 30.5471 2.55326 29.4769C2.2307 28.9434 1.9835 28.3314 1.78453 27.6802C1.6127 27.0321 1.52527 26.3508 1.468 25.6695C1.44388 25.3288 1.41976 24.9882 1.41675 24.6566C1.42881 24.328 1.44689 24.0054 1.468 23.6979C1.51623 23.0739 1.58255 22.4981 1.6549 22.0097C1.85387 21.045 2.03776 20.421 2.03776 20.421C2.03776 20.421 2.39349 20.9335 2.88788 21.7294C3.12905 22.1213 3.41544 22.5855 3.72896 23.101C4.03645 23.6105 4.34997 24.1622 4.64239 24.7259C4.91974 25.2866 5.22723 25.8715 5.4684 26.4503C5.71861 27.0321 5.89346 27.6109 6.005 28.1807L6.00801 28.1776Z" fill="#343434"/>
<path d="M8.49812 28.0119C8.73326 27.4994 9.08597 27.014 9.47486 26.5709C9.67081 26.3508 9.88183 26.1368 10.0959 25.9378C10.3129 25.7358 10.5662 25.555 10.8013 25.3771C11.778 24.6837 12.7578 24.1893 13.5778 23.8939C14.3706 23.5955 14.9102 23.4658 14.9102 23.4658C14.9102 23.4658 14.7957 23.918 14.5364 24.5812C14.4249 24.9189 14.2952 25.3168 14.1174 25.7388C14.033 25.9499 13.9365 26.1669 13.828 26.39C13.7225 26.6131 13.635 26.8482 13.5175 27.0743C13.3034 27.5386 13.0321 27.9998 12.7216 28.449C12.4443 28.8982 12.1096 29.3323 11.7177 29.7181C10.9098 30.4808 9.96323 31.0868 8.64282 31.2104C8.48305 30.9511 8.35644 30.6858 8.27203 30.4206C8.1846 30.1492 8.16651 29.8779 8.15747 29.6066C8.15747 29.064 8.28409 28.5244 8.50114 28.0089L8.49812 28.0119Z" fill="#343434"/>
<path d="M6.70439 10.4697C6.70439 10.4697 6.91843 11.0395 7.22592 11.9318C7.53341 12.8272 7.87708 13.9938 8.19965 15.2419C8.35641 15.8629 8.46192 16.4839 8.55839 17.1049C8.65184 17.7289 8.69706 18.3379 8.65184 18.9076C8.62169 19.194 8.60059 19.4774 8.54633 19.7517C8.48905 20.0291 8.41067 20.2914 8.30214 20.5416C8.1906 20.7918 8.05193 21.033 7.88311 21.2621C7.72334 21.4942 7.52738 21.7173 7.29827 21.9283C6.68631 21.6721 6.19794 21.3043 5.80905 20.8461C5.41112 20.3908 5.16694 19.8573 4.98305 19.2604C4.88959 18.9619 4.82629 18.6514 4.77504 18.3288C4.73283 18.0063 4.69666 17.6717 4.70269 17.3461C4.7057 16.6829 4.77504 15.9985 4.88055 15.3323C5.14282 14.0209 5.56487 12.7729 5.98089 11.9017C6.17684 11.4585 6.3547 11.0968 6.48433 10.8466C6.61998 10.6024 6.70439 10.4697 6.70439 10.4697Z" fill="#343434"/>
<path d="M10.6173 19.7367C10.7409 19.4925 10.8856 19.2574 11.0725 19.0494C11.4373 18.6213 11.8804 18.2354 12.3658 17.9068C12.8542 17.5782 13.4149 17.319 13.9545 17.0989C14.2288 16.9904 14.5032 16.8909 14.7715 16.8065C15.0398 16.7221 15.3201 16.6527 15.5824 16.5955C16.1069 16.4749 16.5953 16.3965 17.0113 16.3452C17.4273 16.294 17.771 16.2669 18.0212 16.2608C18.2745 16.2488 18.4101 16.2488 18.4101 16.2488C18.4101 16.2488 18.3528 16.3513 18.2383 16.5261C18.1328 16.704 17.9881 16.9602 17.7861 17.2617C17.6866 17.4124 17.5781 17.5722 17.4545 17.741C17.3912 17.8254 17.3279 17.9128 17.2585 18.0003C17.2012 18.0907 17.1349 18.1842 17.0686 18.2776C16.8063 18.6514 16.4958 19.0403 16.1461 19.4232C15.8236 19.8181 15.4558 20.204 15.0458 20.5567C14.9433 20.6471 14.8318 20.7315 14.7323 20.8159C14.6298 20.9034 14.5273 20.9847 14.4188 21.0692C14.2047 21.2289 13.9786 21.3797 13.7405 21.5123C13.2732 21.7836 12.7366 21.9946 12.1879 22.1152C11.6393 22.2358 11.0394 22.266 10.3882 22.1574C10.2978 21.868 10.2435 21.5816 10.2314 21.3013C10.2314 21.027 10.2646 20.7587 10.3309 20.4964C10.3972 20.2341 10.4937 19.9839 10.6173 19.7427V19.7367Z" fill="#343434"/>
<path d="M11.4374 13.2191C10.3883 12.4292 9.90291 11.3259 9.82453 10.0869C9.79137 9.47491 9.86372 8.8328 9.99636 8.18465C10.135 7.54254 10.3611 6.9155 10.6174 6.30051C10.8736 5.69156 11.1902 5.12783 11.4946 4.6063C11.7991 4.08477 12.1307 3.6386 12.4081 3.25273C12.6854 2.86686 12.9416 2.56841 13.1255 2.35739C13.3034 2.1524 13.4119 2.03784 13.4119 2.03784C13.4119 2.03784 13.5144 2.64981 13.6079 3.56022C13.6621 4.02448 13.7164 4.56711 13.7616 5.14591C13.7827 5.43833 13.8008 5.73377 13.8129 6.04126C13.831 6.34875 13.846 6.66528 13.8521 6.98483C13.8671 8.24193 13.8099 9.54123 13.4752 10.6355C13.3155 11.1902 13.0833 11.6907 12.7457 12.1248C12.4231 12.5679 12.0041 12.9417 11.4404 13.2251L11.4374 13.2191Z" fill="#343434"/>
<path d="M15.7543 11.0275C16.6557 10.3552 17.8374 9.95731 19.0101 9.78547C19.5889 9.69202 20.1708 9.65886 20.7134 9.65283C21.253 9.65283 21.7444 9.67092 22.1664 9.71312C23.0166 9.80055 23.5622 9.9151 23.5622 9.9151C23.5622 9.9151 23.4868 10.0055 23.3391 10.1593C23.1944 10.313 22.9683 10.518 22.7181 10.7803C22.4589 11.0396 22.1303 11.3229 21.7806 11.6274C21.4369 11.9379 21.036 12.2514 20.6139 12.5589C20.1979 12.8724 19.7366 13.1649 19.2573 13.4181C18.787 13.6834 18.2866 13.9034 17.753 14.0512C16.707 14.3587 15.5644 14.4069 14.3465 13.8733C14.3164 13.2734 14.44 12.7247 14.6811 12.2454C14.9404 11.7781 15.3112 11.3712 15.7483 11.0275H15.7543Z" fill="#343434"/>
</g>
<defs>
<clipPath id="clip0_11470_2311">
<rect width="346" height="79.2815" fill="white"/>
</clipPath>
</defs>
</svg>
